# xmcd
#
# Track frame offsets:
#	150
#	39642
#	77413
#	95000
#	137791
#	175300
#	221148
#	240508
#	270144
#
# Disc length: 4219 seconds
# Revision: 0
# Processed by: cddbd v1.5.2PL0 Copyright (c) Steve Scherf et al.
# Submitted via: dBpowerAMP V12.0
#
DISCID=74107909
DTITLE=Jeff Strahan - Live At Sealy Flats
DYEAR=2012
DGENRE=Blues
TTITLE0=Intro-Smoke Filled Room
TTITLE1=Things Money Can't Buy
TTITLE2=Killer
TTITLE3=Runaway
TTITLE4=Living for Today
TTITLE5=Champagne and Reefer
TTITLE6=Your Funeral My Trial
TTITLE7=Superman
TTITLE8=Take Me To Texas
EXTD=
EXTT0=
EXTT1=
EXTT2=
EXTT3=
EXTT4=
EXTT5=
EXTT6=
EXTT7=
EXTT8=
PLAYORDER=
